<mxfile host="app.diagrams.net" modified="2024-03-17T13:18:27.764Z" agent="Mozilla/5.0 (Windows NT 10.0; Win64; x64) AppleWebKit/537.36 (KHTML, like Gecko) Chrome/122.0.0.0 Safari/537.36" etag="iooB9SqAJrHwt9fehs0Y" version="24.0.7" type="device">
  <diagram name="Страница — 1" id="EFs4GWEpEsZ1B7nAWKLT">
    <mxGraphModel dx="1221" dy="647" grid="1" gridSize="10" guides="1" tooltips="1" connect="1" arrows="1" fold="1" page="1" pageScale="1" pageWidth="827" pageHeight="1169" math="0" shadow="0">
      <root>
        <mxCell id="0" />
        <mxCell id="1" parent="0" />
        <mxCell id="otvIrn3kZsfT3Yj8fhrY-1" value="Авторизованный&lt;div&gt;пользователь&lt;/div&gt;" style="shape=umlActor;verticalLabelPosition=bottom;verticalAlign=top;html=1;outlineConnect=0;" parent="1" vertex="1">
          <mxGeometry x="60" y="220" width="30" height="60" as="geometry" />
        </mxCell>
        <mxCell id="otvIrn3kZsfT3Yj8fhrY-2" value="Учащийся" style="shape=umlActor;verticalLabelPosition=bottom;verticalAlign=top;html=1;outlineConnect=0;" parent="1" vertex="1">
          <mxGeometry x="190" y="220" width="30" height="60" as="geometry" />
        </mxCell>
        <mxCell id="otvIrn3kZsfT3Yj8fhrY-5" value="" style="endArrow=block;html=1;rounded=0;endFill=0;" parent="1" source="otvIrn3kZsfT3Yj8fhrY-2" target="otvIrn3kZsfT3Yj8fhrY-1" edge="1">
          <mxGeometry width="50" height="50" relative="1" as="geometry">
            <mxPoint x="390" y="360" as="sourcePoint" />
            <mxPoint x="440" y="310" as="targetPoint" />
          </mxGeometry>
        </mxCell>
        <mxCell id="otvIrn3kZsfT3Yj8fhrY-6" value="Взаимодействие с заданиями/проектами" style="ellipse;whiteSpace=wrap;html=1;" parent="1" vertex="1">
          <mxGeometry x="310" y="210" width="140" height="80" as="geometry" />
        </mxCell>
        <mxCell id="otvIrn3kZsfT3Yj8fhrY-7" value="" style="endArrow=classic;html=1;rounded=0;entryX=0;entryY=0.5;entryDx=0;entryDy=0;endFill=1;" parent="1" source="otvIrn3kZsfT3Yj8fhrY-2" target="otvIrn3kZsfT3Yj8fhrY-6" edge="1">
          <mxGeometry width="50" height="50" relative="1" as="geometry">
            <mxPoint x="390" y="360" as="sourcePoint" />
            <mxPoint x="440" y="310" as="targetPoint" />
          </mxGeometry>
        </mxCell>
        <mxCell id="otvIrn3kZsfT3Yj8fhrY-18" value="" style="edgeStyle=orthogonalEdgeStyle;rounded=0;orthogonalLoop=1;jettySize=auto;html=1;startArrow=classic;startFill=1;dashed=1;endArrow=none;endFill=0;" parent="1" source="otvIrn3kZsfT3Yj8fhrY-8" target="otvIrn3kZsfT3Yj8fhrY-17" edge="1">
          <mxGeometry relative="1" as="geometry" />
        </mxCell>
        <mxCell id="otvIrn3kZsfT3Yj8fhrY-19" value="&amp;lt;&amp;lt;Extended&amp;gt;&amp;gt;" style="edgeLabel;html=1;align=center;verticalAlign=middle;resizable=0;points=[];" parent="otvIrn3kZsfT3Yj8fhrY-18" vertex="1" connectable="0">
          <mxGeometry x="-0.0242" y="-1" relative="1" as="geometry">
            <mxPoint y="-11" as="offset" />
          </mxGeometry>
        </mxCell>
        <mxCell id="otvIrn3kZsfT3Yj8fhrY-8" value="Добавить ответ на задание/проект" style="ellipse;whiteSpace=wrap;html=1;" parent="1" vertex="1">
          <mxGeometry x="570" y="70" width="120" height="80" as="geometry" />
        </mxCell>
        <mxCell id="otvIrn3kZsfT3Yj8fhrY-9" value="Просмотреть задание/проект" style="ellipse;whiteSpace=wrap;html=1;" parent="1" vertex="1">
          <mxGeometry x="570" y="210" width="120" height="80" as="geometry" />
        </mxCell>
        <mxCell id="otvIrn3kZsfT3Yj8fhrY-16" value="" style="edgeStyle=orthogonalEdgeStyle;rounded=0;orthogonalLoop=1;jettySize=auto;html=1;startArrow=classic;startFill=1;endArrow=none;endFill=0;dashed=1;" parent="1" source="otvIrn3kZsfT3Yj8fhrY-10" target="otvIrn3kZsfT3Yj8fhrY-15" edge="1">
          <mxGeometry relative="1" as="geometry" />
        </mxCell>
        <mxCell id="otvIrn3kZsfT3Yj8fhrY-20" value="&amp;lt;&amp;lt;Extended&amp;gt;&amp;gt;" style="edgeLabel;html=1;align=center;verticalAlign=middle;resizable=0;points=[];" parent="otvIrn3kZsfT3Yj8fhrY-16" vertex="1" connectable="0">
          <mxGeometry x="-0.0083" y="1" relative="1" as="geometry">
            <mxPoint y="-9" as="offset" />
          </mxGeometry>
        </mxCell>
        <mxCell id="otvIrn3kZsfT3Yj8fhrY-10" value="Проверить состояние выполнения задания/проекта" style="ellipse;whiteSpace=wrap;html=1;" parent="1" vertex="1">
          <mxGeometry x="550" y="350" width="160" height="80" as="geometry" />
        </mxCell>
        <mxCell id="otvIrn3kZsfT3Yj8fhrY-12" value="" style="endArrow=none;dashed=1;html=1;rounded=0;entryX=0;entryY=0.5;entryDx=0;entryDy=0;exitX=1;exitY=1;exitDx=0;exitDy=0;startArrow=classic;startFill=1;" parent="1" source="otvIrn3kZsfT3Yj8fhrY-6" target="otvIrn3kZsfT3Yj8fhrY-10" edge="1">
          <mxGeometry width="50" height="50" relative="1" as="geometry">
            <mxPoint x="390" y="340" as="sourcePoint" />
            <mxPoint x="440" y="290" as="targetPoint" />
          </mxGeometry>
        </mxCell>
        <mxCell id="otvIrn3kZsfT3Yj8fhrY-21" value="&amp;lt;&amp;lt;Extended&amp;gt;&amp;gt;" style="edgeLabel;html=1;align=center;verticalAlign=middle;resizable=0;points=[];" parent="otvIrn3kZsfT3Yj8fhrY-12" vertex="1" connectable="0">
          <mxGeometry x="0.0435" y="-1" relative="1" as="geometry">
            <mxPoint as="offset" />
          </mxGeometry>
        </mxCell>
        <mxCell id="otvIrn3kZsfT3Yj8fhrY-13" value="" style="endArrow=none;dashed=1;html=1;rounded=0;entryX=0;entryY=0.5;entryDx=0;entryDy=0;exitX=1;exitY=0.5;exitDx=0;exitDy=0;startArrow=classic;startFill=1;" parent="1" source="otvIrn3kZsfT3Yj8fhrY-6" target="otvIrn3kZsfT3Yj8fhrY-9" edge="1">
          <mxGeometry width="50" height="50" relative="1" as="geometry">
            <mxPoint x="390" y="340" as="sourcePoint" />
            <mxPoint x="440" y="290" as="targetPoint" />
          </mxGeometry>
        </mxCell>
        <mxCell id="otvIrn3kZsfT3Yj8fhrY-23" value="&amp;lt;&amp;lt;Extended&amp;gt;&amp;gt;" style="edgeLabel;html=1;align=center;verticalAlign=middle;resizable=0;points=[];" parent="otvIrn3kZsfT3Yj8fhrY-13" vertex="1" connectable="0">
          <mxGeometry x="0.0278" y="1" relative="1" as="geometry">
            <mxPoint y="-9" as="offset" />
          </mxGeometry>
        </mxCell>
        <mxCell id="otvIrn3kZsfT3Yj8fhrY-14" value="" style="endArrow=none;dashed=1;html=1;rounded=0;entryX=0;entryY=0.5;entryDx=0;entryDy=0;exitX=1;exitY=0;exitDx=0;exitDy=0;startArrow=classic;startFill=1;" parent="1" source="otvIrn3kZsfT3Yj8fhrY-6" target="otvIrn3kZsfT3Yj8fhrY-8" edge="1">
          <mxGeometry width="50" height="50" relative="1" as="geometry">
            <mxPoint x="300" y="220" as="sourcePoint" />
            <mxPoint x="480" y="-10" as="targetPoint" />
          </mxGeometry>
        </mxCell>
        <mxCell id="otvIrn3kZsfT3Yj8fhrY-22" value="&amp;lt;&amp;lt;Extended&amp;gt;&amp;gt;" style="edgeLabel;html=1;align=center;verticalAlign=middle;resizable=0;points=[];" parent="otvIrn3kZsfT3Yj8fhrY-14" vertex="1" connectable="0">
          <mxGeometry x="0.0638" y="3" relative="1" as="geometry">
            <mxPoint x="1" as="offset" />
          </mxGeometry>
        </mxCell>
        <mxCell id="otvIrn3kZsfT3Yj8fhrY-15" value="Проверить ответ преподавателя на работу" style="ellipse;whiteSpace=wrap;html=1;" parent="1" vertex="1">
          <mxGeometry x="790" y="350" width="160" height="80" as="geometry" />
        </mxCell>
        <mxCell id="otvIrn3kZsfT3Yj8fhrY-17" value="Прикрепить файл к ответу" style="ellipse;whiteSpace=wrap;html=1;" parent="1" vertex="1">
          <mxGeometry x="800" y="70" width="140" height="80" as="geometry" />
        </mxCell>
      </root>
    </mxGraphModel>
  </diagram>
</mxfile>
